<svg width="20" height="20" viewBox="0 0 20 20" fill="none" xmlns="http://www.w3.org/2000/svg">
<circle cx="10" cy="10" r="10" fill="#FB4E4E"/>
<path d="M10 9.43431L13.3172 6.11716C13.4734 5.96095 13.7266 5.96095 13.8828 6.11716C14.0391 6.27337 14.0391 6.52663 13.8828 6.68284L10.5657 10L13.8828 13.3172C14.0391 13.4734 14.0391 13.7266 13.8828 13.8828C13.7266 14.0391 13.4734 14.0391 13.3172 13.8828L10 10.5657L6.68284 13.8828C6.52663 14.0391 6.27337 14.0391 6.11716 13.8828C5.96095 13.7266 5.96095 13.4734 6.11716 13.3172L9.43431 10L6.11716 6.68284C5.96095 6.52663 5.96095 6.27337 6.11716 6.11716C6.27337 5.96095 6.52663 5.96095 6.68284 6.11716L10 9.43431Z" fill="#121212"/>
</svg>
